# xmcd
#
# Track frame offsets:
#	150
#	17243
#	35006
#	52273
#	72782
#	90477
#	104203
#	118972
#	132651
#	145510
#	160545
#	172384
#	183253
#	201484
#	235180
#
# Disc length: 3378 seconds
#
# Revision: 0
# Processed by: cddbd v1.5.2PL0 Copyright (c) Steve Scherf et al.
# Submitted via: dBpowerAMP V4.0
#
DISCID=e50d300f
DTITLE=Blues N' Trouble - Great hits
DYEAR=1900
DGENRE=
TTITLE0=Why why why
TTITLE1=States boro blues
TTITLE2=Boogie Susie Lee
TTITLE3=Sweet litle cutie
TTITLE4=Twist on the moon
TTITLE5=What's the matter
TTITLE6=Rockin with you Jimmy
TTITLE7=See my baby shake  it
TTITLE8=Fine fine fine
TTITLE9=Clock on the wall
TTITLE10=You can run
TTITLE11=Madison blues
TTITLE12=Slim's chance
TTITLE13=Drugstore woman
TTITLE14=Looking for my baby
EXTD=
EXTT0=
EXTT1=
EXTT2=
EXTT3=
EXTT4=
EXTT5=
EXTT6=
EXTT7=
EXTT8=
EXTT9=
EXTT10=
EXTT11=
EXTT12=
EXTT13=
EXTT14=
PLAYORDER=
